<svg width="550" height="500" xmlns="http://www.w3.org/2000/svg" xml:space="preserve" version="1.1">
 <g>
  <title>Layer 1</title>
  <g id="svg_112">
   <path stroke="null" id="svg_9943" fill="#FFFFFF" d="m490.7116,234.45051c8.28098,-8.79245 16.53879,-17.10717 24.71553,-24.96692c-16.83991,2.22939 -33.67983,4.44741 -50.51974,6.6768c2.91861,-2.65025 4.04204,-3.6057 5.47818,-4.39054c1.0192,-0.55735 3.67143,-1.28531 7.31969,-2.30901c2.67539,-0.73934 5.37395,-1.42181 8.01459,-2.01328l5.77931,-1.30806l1.5288,-5.63035c2.24687,-7.60951 4.48215,-15.24176 6.70585,-22.89677c4.54006,-15.63987 8.99905,-31.20012 13.36538,-46.69212c-6.1036,3.59433 -12.2072,7.20003 -18.3108,10.79435c0.18531,-0.30711 0.37062,-0.61422 0.55593,-0.9327l1.30874,-2.26352l-0.02316,-2.60475c0.05791,-5.28912 0.04633,-10.63511 -0.02316,-16.04935c-0.34745,-25.55839 -2.13105,-49.84284 -4.92226,-72.71686c-4.35475,11.90905 -10.45835,25.66076 -19.09836,40.22006c-5.87196,9.89577 -11.96398,18.52898 -17.77804,25.94512l-0.11582,0.17062c-2.03839,3.12797 -4.21577,6.2332 -6.43947,9.23605c-0.60225,0.81896 -1.35507,1.83129 -2.27003,3.00286c1.4593,-10.91947 2.39743,-24.01147 1.77201,-38.7755c-0.67174,-16.15172 -3.03443,-30.22192 -5.73298,-41.67599c-6.16151,15.75361 -14.78994,34.12335 -26.95081,53.55091c-9.43915,15.08252 -19.2026,27.90153 -28.32904,38.58214c-8.22307,-0.38673 -16.44613,-0.78484 -24.6692,-1.17157l-9.28859,9.09956l-6.60162,1.54693c-10.58575,3.00286 -21.15992,6.00571 -31.74567,9.00857c-0.91496,0.23886 -1.82992,0.4891 -2.7333,0.72796c-5.69824,-3.92419 -11.39647,-7.84837 -17.09471,-11.77256l-0.64858,-0.40948c-2.82596,-1.63792 -5.31604,-3.70807 -7.38918,-6.1422c-1.6562,-1.94503 -3.05759,-4.12893 -4.04204,-6.32419c-1.25083,-2.77537 -1.99207,-5.73272 -2.20054,-8.78108l-1.77201,-25.38777l-15.8323,20.14415c-2.50167,3.18485 -4.5169,6.66543 -5.98778,10.35075c-0.54434,1.35356 -0.99603,2.70712 -1.37823,4.03793l-4.43582,-20.00766l-12.91369,16.68632c-1.47089,1.89953 -2.75646,3.91281 -3.8799,5.98296c-1.12343,-1.33081 -2.14263,-2.75262 -3.04601,-4.25404c-1.6562,-2.75262 -2.90703,-5.72135 -3.70617,-8.84932l-6.08044,-23.63611l-18.63509,32.91766l-0.24322,1.83129c-0.637,4.78864 -0.42853,9.57729 0.60225,14.25219l-8.1999,-1.91091l-9.28859,-9.09956c-8.22307,0.38673 -16.44613,0.78484 -24.6692,1.17157c-9.12645,-10.68061 -18.87831,-23.51099 -28.32904,-38.58214c-12.16087,-19.42756 -20.77772,-37.7973 -26.95081,-53.55091c-2.69856,11.45407 -5.04966,25.52427 -5.73298,41.67599c-0.61383,14.76404 0.31271,27.85603 1.77201,38.7755c-0.90338,-1.17157 -1.6562,-2.18389 -2.27003,-3.00286c-2.23528,-2.99148 -4.40108,-6.10808 -6.43947,-9.23605l-0.11582,-0.17062c-5.82564,-7.41614 -11.90607,-16.04935 -17.77804,-25.94512c-8.64001,-14.5593 -14.74361,-28.31101 -19.09836,-40.22006c-2.79121,22.87402 -4.5748,47.15847 -4.92226,72.71686c-0.06949,5.41424 -0.08107,10.76023 -0.02316,16.04935l-0.02316,2.60475l1.30874,2.26352c0.18531,0.30711 0.37062,0.62559 0.55593,0.9327c-6.1036,-3.59433 -12.2072,-7.20003 -18.3108,-10.79435c4.36633,15.492 8.81374,31.06363 13.36538,46.69212c2.2237,7.65501 4.45899,15.28726 6.70585,22.89677l1.5288,5.63035l5.77931,1.30806c2.64065,0.60285 5.3392,1.27394 8.01459,2.01328c3.65984,1.01233 6.30049,1.75167 7.31969,2.30901c1.44772,0.78484 2.55957,1.74029 5.47818,4.39054c-16.83991,-2.22939 -33.67983,-4.44741 -50.51974,-6.6768c8.18832,7.85975 16.44613,16.17447 24.71553,24.96692c2.97652,3.1621 5.89513,6.32419 8.74425,9.46354c3.13866,3.1166 6.26574,6.22182 9.40441,9.33842c-10.81739,0.42085 -21.64635,0.83033 -32.46374,1.25119c4.78328,6.68818 9.57813,13.38773 14.36141,20.07591l20.90512,0.38673l21.92432,3.61708c3.13866,2.60475 6.28891,5.2095 9.42757,7.80287c-17.25686,3.82182 -34.51371,7.64363 -51.77057,11.46545c14.07187,5.34599 28.15532,10.69198 42.22718,16.04935c-10.1109,5.90334 -20.23338,11.80668 -30.34427,17.71002c15.13739,1.94503 30.27478,3.89006 45.41217,5.83509c-7.99143,7.91662 -15.98286,15.83324 -23.97429,23.76123c12.23036,0.69384 24.47231,1.38768 36.70267,2.08152c-5.51293,8.25785 -11.03744,16.50433 -16.55037,24.76218c8.9643,-0.18199 17.9286,-0.35261 26.8929,-0.5346l-3.42821,5.81234l7.04172,22.05506l25.38727,-6.48344l11.29224,-22.73753l29.38298,26.57072l-0.54434,-26.50247l15.12581,-26.42285l1.50563,27.33281c0.10424,3.50333 0.99603,6.97254 2.59432,10.06639c1.08869,2.12702 2.51325,4.08343 4.20419,5.80097l3.78724,3.84456l0.10424,1.56967l9.45074,8.13273l2.14263,2.17252l0.02316,-0.31848l25.34094,21.8162l2.61748,2.26352l0,0l0,0l2.61748,-2.26352l25.34094,-21.8162l0.02316,0.31848l2.14263,-2.17252l9.45074,-8.13273l0.10424,-1.56967l3.78724,-3.84456c1.69094,-1.71754 3.10392,-3.67395 4.20419,-5.80097c1.5867,-3.09385 2.4785,-6.56306 2.59432,-10.06639l1.50563,-27.33281l15.12581,26.42285l-0.54434,26.50247l29.38298,-26.57072l11.29224,22.73753l25.38727,6.48344l7.04172,-22.05506l-3.42821,-5.81234c8.9643,0.18199 17.9286,0.35261 26.8929,0.5346c-5.51293,-8.25785 -11.03744,-16.50433 -16.55037,-24.76218c12.23036,-0.69384 24.47231,-1.38768 36.70267,-2.08152c-7.99143,-7.91662 -15.98286,-15.83324 -23.97429,-23.76123c15.13739,-1.94503 30.27478,-3.89006 45.41217,-5.83509c-10.1109,-5.90334 -20.23338,-11.80668 -30.34427,-17.71002c14.07187,-5.34599 28.15532,-10.69198 42.22718,-16.04935c-17.25686,-3.82182 -34.51371,-7.64363 -51.77057,-11.46545c3.13866,-2.60475 6.28891,-5.2095 9.42757,-7.80287l21.92432,-3.61708l20.90512,-0.38673c4.78328,-6.68818 9.57813,-13.38773 14.36141,-20.07591c-10.81739,-0.42085 -21.64635,-0.83033 -32.46374,-1.25119c3.13866,-3.1166 6.26574,-6.22182 9.40441,-9.33842c2.81437,-3.15072 5.73298,-6.31282 8.7095,-9.47492z" class="st5"/>
   <g filter="url(#Harpia_00000154394738026113639720000007929134929038065024__blur)" id="svg_111">
    <g id="svg_77">
     <path id="svg_57" fill="#640d14" d="m57.36226,59.48883c1.07,17.82 1.71,36.23 1.83,55.21c0.04,5.61 0.03,11.18 -0.03,16.69c2.52,4.44 5.38,9.09 8.61,13.89c3.95,5.87 7.93,11.14 11.78,15.85c1.23,-15.85 2.46,-31.7 3.7,-47.55c-5.1,-7.59 -10.52,-16.75 -15.55,-27.46c-4.51,-9.6 -7.85,-18.61 -10.34,-26.63z" class="st6158"/>
     <path id="svg_58" fill="#ad2831" d="m120.58226,154.49883c-2.57,-1.7 -6.07,-4.19 -9.92,-7.56c-4.9,-4.28 -8.13,-8 -11.33,-11.68c-4.33,-4.98 -7.31,-9.05 -9.23,-11.67c-2.85,-3.9 -5.14,-7.34 -6.86,-10.01c-1.23,15.85 -2.46,31.7 -3.7,47.55c3.06,3.58 6.18,7.18 9.38,10.81c3.88,4.4 7.75,8.69 11.59,12.87c11.39,-3.27 22.78,-6.54 34.17,-9.82c4.12,-13.5 8.25,-27.01 12.37,-40.51c-7.41,-9.43 -15.59,-21.31 -23.21,-35.7c-8.35,-15.77 -13.85,-30.44 -17.54,-42.7c-0.15,5.91 -0.21,14.32 0.21,24.41c0.57,13.74 1.16,27.7 4.99,44.84c1.66,7.32 4.38,17.43 9.08,29.17z" class="st6159"/>
     <path id="svg_59" fill="#eae6e5" d="m100.52226,184.80883c11.39,-3.27 22.78,-6.54 34.17,-9.82c4.12,-13.5 8.25,-27.01 12.37,-40.51c6.28,7.45 12.05,12.96 16.24,16.67c5.17,4.58 9.39,7.7 16.49,12.95c7.23,5.35 13.36,9.58 17.66,12.47c-3.73,4.78 -7.47,9.56 -11.2,14.34c-6.91,2.23 -13.83,4.47 -20.74,6.7c6.39,5.38 12.78,10.75 19.17,16.13c-1.03,2.61 -2.06,5.75 -2.84,9.35c-0.94,4.35 -1.27,8.26 -1.33,11.49c-11.85,-8.21 -25.01,-16.53 -39.5,-24.62c-8.11,-4.53 -16.04,-8.64 -23.73,-12.39c-2.83,-1.77 -5.86,-3.82 -8.98,-6.22c-2.89,-2.22 -5.48,-4.43 -7.78,-6.54z" class="st6160"/>
     <path id="svg_60" fill="#640d14" d="m47.85226,147.89883c2.63,7.48 5.22,15.28 7.72,23.39c2.53,8.2 4.82,16.19 6.89,23.95c2.02,0.47 5,1.19 8.57,2.2c4.99,1.41 7.53,2.14 9.53,3.25c2.71,1.51 4.56,3.22 8.26,6.65c1.61,1.49 1.63,1.64 4.54,4.38c3,2.83 4.52,4.27 5.76,5.16c1.21,0.87 3.69,2.63 7.25,3.86c2.51,0.87 3.04,0.61 6.68,1.57c0,0 2.75,0.73 6.72,2.25c4.7,1.8 19.14,9.14 38.14,20.1c0,0.57 0,1.14 0,1.72l-108.56,-31.32c3.92,2.76 8.28,6.22 12.74,10.51c3.86,3.72 7.08,7.38 9.74,10.73c5.88,0.07 11.76,0.14 17.64,0.21c12.78,4.97 25.57,9.94 38.35,14.91c11.69,0.21 23.39,0.43 35.08,0.64c2.99,4.45 5.97,8.9 8.96,13.36c-2.79,3.13 -5.58,6.26 -8.37,9.39c-16.01,3.32 -28.86,6.23 -37.68,8.29c-10.79,2.52 -19.62,4.71 -33.07,7.4c-8.29,1.66 -15.11,2.87 -19.55,3.62c11.55,3.67 23.1,7.34 34.65,11.01c8.38,-3.65 14.79,-6.46 19.33,-8.52c1.36,-0.62 4.02,-1.83 7.72,-3.14c3.35,-1.18 3.46,-1 6.11,-1.93c5.18,-1.81 6.62,-3.15 13.17,-5.98c2.21,-0.95 4.22,-1.74 5.98,-2.39c0.13,1.5 0.27,3 0.4,4.51c2.25,3.03 4.51,6.06 6.76,9.09c-4.69,4.4 -9.39,8.8 -14.08,13.19c4.99,1.29 9.98,2.57 14.96,3.86c4.15,-5.75 8.3,-11.5 12.44,-17.24c-0.96,-3.06 -1.92,-7.28 -2.06,-12.36c-0.11,-4.12 0.35,-7.67 0.91,-10.42c3,-4.89 5.99,-9.79 8.99,-14.68c-2.47,-6.35 -4.94,-12.7 -7.4,-19.05c-26.75,-13.12 -57.15,-30.71 -88.5,-54.4c-16.76,-12.68 -31.63,-25.44 -44.72,-37.77z" class="st6158"/>
     <path id="svg_61" fill="#ad2831" d="m54.13226,256.13883c2.04,2.68 4.08,5.36 6.11,8.05c5.69,0.11 11.37,0.21 17.06,0.32c8.53,1.43 17.06,2.86 25.58,4.29c4.27,3.61 8.55,7.22 12.82,10.83c7.6,-1.47 15.2,-2.95 22.8,-4.42c-3.77,-5.71 -7.55,-11.43 -11.32,-17.14c-7.92,1.14 -15.84,2.29 -23.76,3.43c-7.15,-1.95 -14.3,-3.9 -21.46,-5.85c-9.28,0.17 -18.55,0.33 -27.83,0.49z" class="st6159"/>
     <path id="svg_62" fill="#ad2831" d="m84.86226,324.08883c12.5,1.64 25,3.27 37.49,4.91c13.25,-11.02 26.5,-22.04 39.75,-33.05l-5.04,-6.44l-6.01,3.54c-1.05,0.01 -2.1,0.02 -3.15,0.03c-21.01,10.33 -42.03,20.67 -63.04,31.01z" class="st6159"/>
     <path id="svg_63" fill="#eae6e5" d="m151.72226,312.37883c-15.69,13.7 -31.38,27.41 -47.07,41.11c9.68,0.59 19.36,1.18 29.04,1.77l32.42,-38.46c-4.79,-1.47 -9.59,-2.94 -14.39,-4.42z" class="st6160"/>
     <path id="svg_64" fill="#ad2831" d="m184.68226,291.87883c4.1,3.21 8.2,6.43 12.29,9.64c-17.94,26.16 -35.87,52.31 -53.81,78.47c-7.13,0.41 -14.27,0.82 -21.4,1.23c21.18,-28 42.36,-56.01 63.55,-84.01c-0.21,-1.77 -0.42,-3.55 -0.63,-5.33z" class="st6159"/>
     <path id="svg_65" fill="#ad2831" d="m165.40226,361.05883l10.06,9.82c1.58,-2.74 3.16,-5.47 4.75,-8.21c1.99,0.1 4.59,-0.06 7.43,-1c1.93,-0.64 3.65,-1.21 5.28,-2.78c1.69,-1.62 2.54,-3.61 3.7,-6.28c0.48,-1.09 0.81,-2.02 1.02,-2.66c5.24,-11.1 10.47,-22.2 15.71,-33.3c-4.64,-4.34 -9.28,-8.69 -13.92,-13.03l-34.03,57.44z" class="st6159"/>
     <path id="svg_66" fill="#eae6e5" d="m165.40226,361.05883c3.35,3.27 6.7,6.54 10.06,9.82c-5.36,11 -10.73,21.99 -16.09,32.99c-4.02,1.05 -8.05,2.09 -12.07,3.14c-0.99,-3.16 -1.98,-6.33 -2.98,-9.49c7.02,-12.16 14.05,-24.31 21.08,-36.46z" class="st6160"/>
     <path id="svg_67" fill="#640d14" d="m183.18226,362.59883c-0.11,5.84 -0.21,11.69 -0.32,17.53c4.72,4.34 9.44,8.69 14.16,13.03c-0.04,-2.22 -0.09,-4.45 -0.13,-6.67c9.01,-16.03 18.02,-32.05 27.03,-48.08c0.28,-1.45 0.59,-3.54 0.62,-6.07c0.04,-3.24 0.06,-4.99 -0.89,-6.92c-0.8,-1.64 -2.21,-2.78 -4.99,-4.99c-2.14,-1.71 -4.02,-2.96 -5.31,-3.78c-5.58,11.99 -11.16,23.98 -16.73,35.96c-0.62,1.48 -2.97,6.61 -8.54,8.91c-1.83,0.76 -3.55,1.02 -4.9,1.08z" class="st6158"/>
     <path id="svg_68" fill="#640d14" d="m237.73226,399.35883c0.13,-2.1 0.27,-4.2 0.4,-6.3c1.57,-1.73 3.15,-3.47 4.72,-5.2c5.88,-9.03 11.76,-18.06 17.65,-27.09c-1.01,-1.18 -2.02,-2.36 -3.03,-3.54c-0.68,0.82 -1.36,1.64 -2.04,2.47c-5.29,-6.19 -10.58,-12.37 -15.88,-18.56c-0.17,-11.63 -0.69,-20.49 -1.18,-24.7c-0.14,-1.22 -0.43,-3.37 -1.82,-5.58c-1.14,-1.81 -2.49,-2.83 -3.65,-3.69c-6.67,-4.94 -10.01,-7.41 -10.13,-7.49c-2.08,-1.47 -4.97,-3.65 -8.26,-6.6c-0.79,-0.03 -1.57,-0.05 -2.36,-0.08c-0.4,-0.37 -0.99,-0.93 -1.73,-1.61c-3.96,-3.64 -5.82,-5.04 -7.84,-6.88c-2.81,-2.56 -4.8,-4.37 -6.4,-6.96c-1.24,-2.01 -3.08,-5.85 -3.02,-11.91c-1.17,1.55 -4.28,6.07 -3.86,11.69c0.07,0.94 0.22,2.76 1.23,4.77c1.04,2.08 2.42,3.21 4.45,4.88c2.48,2.05 4.71,3.89 7.72,6.38c0.37,0 0.74,0 1.11,0c4.26,3.81 7.89,7.06 11.39,10.19c1.99,1.78 6.22,5.77 7.35,6.81c2.01,1.86 2.71,2.51 3.54,3.54c2.42,3.01 3.44,6.17 3.92,8.31c1.22,22.44 2.43,44.88 3.65,67.32c0.03,1.38 0.27,3.73 1.56,6.28c0.78,1.58 1.74,2.75 2.51,3.55z" class="st6158"/>
     <path id="svg_69" fill="#640d14" d="m178.23226,138.67883c9.75,12.52 19.5,25.05 29.25,37.57c0.01,2.97 0.01,5.95 0.02,8.92c-2.26,4.62 -4.1,8.28 -5.25,10.55c-4.92,9.73 -7.04,13.52 -8.77,19.79c-1.76,6.39 -1.33,8.91 -1.06,10.07c0.4,1.7 1.13,3.38 5.59,9.48c1.7,2.32 3.91,5.25 6.61,8.58c3.76,-4.41 7.52,-8.81 11.28,-13.22c-2.61,-0.8 -5.22,-1.59 -7.83,-2.39c2.75,-2.12 5.51,-4.24 8.26,-6.36c-2.76,-2.95 -5.52,-5.9 -8.29,-8.85c0.04,-2.41 0.29,-5.22 0.97,-8.29c0.28,-1.28 0.61,-2.48 0.97,-3.59c2.26,1.9 4.52,3.81 6.79,5.71c-0.84,-1.8 -1.48,-3.35 -1.93,-4.51c-1.1,-2.79 -1.65,-4.22 -1.9,-6.06c-0.26,-1.9 -0.14,-3.51 0.03,-4.61c1.14,1.14 2.29,2.27 3.43,3.41c-0.34,-5.6 -0.68,-11.19 -1.02,-16.79c5.71,4.43 11.42,8.85 17.14,13.28c-11.64,-11.13 -23.28,-22.26 -34.92,-33.39c-6.47,-6.43 -12.92,-12.87 -19.37,-19.3z" class="st6158"/>
     <path id="svg_70" fill="#eae6e5" d="m206.50226,241.43883c-0.63,0.74 -1.25,1.47 -1.88,2.21c3.21,3.82 6.41,7.64 9.62,11.46l-0.97,23.25c13.11,-6.7 26.23,-13.41 39.34,-20.11c6.57,7.46 13.14,14.91 19.71,22.37c-1.39,-5.95 -2.79,-11.91 -4.18,-17.86c-4.51,-3.35 -9.01,-6.7 -13.52,-10.06c-6.54,-0.33 -11.41,1.01 -14.32,2.09c-3.86,1.44 -6.83,3.36 -9.98,5.39c-3.25,2.1 -5.82,4.11 -7.64,5.63c-0.77,-2.79 -1.12,-5.18 -1.29,-6.92c-0.29,-2.94 -0.52,-5.3 0.24,-8.21c0.63,-2.43 1.7,-4.25 2.49,-5.39c-5.87,-1.29 -11.74,-2.57 -17.62,-3.85z" class="st6160"/>
     <path id="svg_71" fill="#eae6e5" d="m241.67226,308.11883c0.71,2.49 1.42,4.99 2.13,7.48c2.55,-1.49 5.1,-2.98 7.64,-4.47c-1.06,-3.74 -2.12,-7.48 -3.18,-11.22c-2.19,2.74 -4.39,5.47 -6.59,8.21z" class="st6160"/>
     <path id="svg_72" fill="#eae6e5" d="m244.08226,316.78883c2.63,-1.47 5.26,-2.94 7.89,-4.41c1.25,6.52 2.49,13.03 3.74,19.55c-3.58,2.12 -7.16,4.24 -10.74,6.36c-0.3,-7.17 -0.6,-14.33 -0.89,-21.5z" class="st6160"/>
     <path id="svg_73" fill="#eae6e5" d="m246.70226,339.97883c3.74,4.25 7.48,8.5 11.22,12.75c0.38,-0.35 0.75,-0.7 1.13,-1.05c-0.04,-5.42 -0.08,-10.83 -0.12,-16.25c-0.76,-0.66 -1.53,-1.31 -2.29,-1.97c-3.32,2.18 -6.63,4.35 -9.94,6.52z" class="st6160"/>
     <path id="svg_74" fill="#eae6e5" d="m260.78226,337.19883c4.26,3.69 8.53,7.38 12.79,11.06c0.01,6.45 0.01,12.89 0.02,19.34c-4.32,-5.13 -8.65,-10.27 -12.97,-15.4c0.05,-4.99 0.1,-9.99 0.16,-15z" class="st6160"/>
     <path id="svg_75" fill="#38040e" d="m269.06226,216.05883c-2.28,1.55 -2.87,2.11 -4.26,2.63c-0.44,0.17 -2,0.73 -3.82,0.68c-3.03,-0.08 -5.24,-1.78 -6.2,-2.61c-4.39,-3.3 -7.99,-5.8 -10.5,-7.48c-0.86,-0.58 -4.66,-3.12 -9.41,-6.52c-1.71,-1.22 -2.47,-1.79 -3.38,-2.53c-2.99,-2.46 -5.08,-4.86 -6.4,-6.52c1.21,2.18 2.43,4.43 3.63,6.76c0.87,1.69 1.71,3.35 2.51,5c-0.1,1.16 -0.16,2.77 0.07,4.66c0.16,1.34 0.36,3.19 1.29,5.3c0.53,1.22 1.99,4.42 5.37,6.51c1.47,0.91 2.86,1.34 4.73,1.74c2.94,0.63 7.54,1.29 13.64,0.89c0.62,0.03 1.25,0.05 1.87,0.08c0.05,2.94 0.09,5.87 0.14,8.81c0.81,-1.49 1.71,-3.04 2.7,-4.64c0.81,-1.3 1.82,-2.94 3.26,-4.93c1.58,-2.19 2.87,-3.7 5.07,-6.28c1.43,-1.67 2.64,-3.03 3.46,-3.94c-1.64,0.97 -2.92,1.81 -3.77,2.39zm-18.52,4.85c-1.8,0.93 -3.48,0.8 -4.85,0.68c-1.49,-0.14 -5.34,-0.49 -8.25,-3.54c-3.12,-3.27 -3.21,-7.64 -3.26,-10.1c-0.02,-0.88 0.03,-1.61 0.08,-2.13c0.91,0.22 2.1,0.6 3.38,1.29c1.47,0.79 2.54,1.7 3.26,2.41c-0.04,0.38 -0.32,3.1 1.61,4.99c1.37,1.33 3.08,1.52 3.79,1.59c1.55,0.16 2.8,-0.21 3.45,-0.46c1.23,0.83 2.47,1.66 3.7,2.49c-0.42,0.7 -1.32,1.96 -2.91,2.78z" class="st6161"/>
     <path id="svg_76" fill="#38040e" d="m270.14226,220.48883c-0.29,0.12 -0.71,0.31 -1.18,0.62c-1.31,0.85 -1.97,1.94 -2.6,2.96c-0.35,0.58 -0.91,1.59 -1.35,2.95c-0.28,0.88 -0.43,1.66 -0.51,2.25c0.15,-0.08 0.35,-0.18 0.58,-0.32c0.3,-0.18 0.93,-0.59 1.63,-1.24c0.28,-0.27 0.26,-0.27 1.6,-1.89c0.74,-0.89 0.85,-1.01 1.01,-1.32c0.33,-0.61 0.45,-1.13 0.58,-1.74c0.11,-0.54 0.24,-1.32 0.24,-2.27z" class="st6161"/>
    </g>
    <g id="svg_98">
     <path id="svg_78" fill="#640d14" d="m491.88226,59.42883c-1.07,17.82 -1.71,36.23 -1.83,55.21c-0.04,5.61 -0.03,11.18 0.03,16.69c-2.52,4.44 -5.38,9.09 -8.61,13.89c-3.95,5.87 -7.93,11.14 -11.78,15.85c-1.23,-15.85 -2.46,-31.7 -3.7,-47.55c5.1,-7.59 10.52,-16.75 15.55,-27.46c4.51,-9.6 7.85,-18.61 10.34,-26.63z" class="st6158"/>
     <path id="svg_79" fill="#ad2831" d="m428.66226,154.43883c2.57,-1.7 6.07,-4.19 9.92,-7.56c4.9,-4.28 8.13,-8 11.33,-11.68c4.33,-4.98 7.31,-9.05 9.23,-11.67c2.85,-3.9 5.14,-7.34 6.86,-10.01c1.23,15.85 2.46,31.7 3.7,47.55c-3.06,3.58 -6.18,7.18 -9.38,10.81c-3.88,4.4 -7.75,8.69 -11.59,12.87c-11.39,-3.27 -22.78,-6.54 -34.17,-9.82c-4.12,-13.5 -8.25,-27.01 -12.37,-40.51c7.41,-9.43 15.59,-21.31 23.21,-35.7c8.35,-15.77 13.85,-30.44 17.54,-42.7c0.15,5.91 0.21,14.32 -0.21,24.41c-0.57,13.74 -1.16,27.7 -4.99,44.84c-1.65,7.33 -4.38,17.43 -9.08,29.17z" class="st6159"/>
     <path id="svg_80" fill="#eae6e5" d="m448.72226,184.74883c-11.39,-3.27 -22.78,-6.54 -34.17,-9.82c-4.12,-13.5 -8.25,-27.01 -12.37,-40.51c-6.28,7.45 -12.05,12.96 -16.24,16.67c-5.17,4.58 -9.39,7.7 -16.49,12.95c-7.23,5.35 -13.36,9.58 -17.66,12.47c3.73,4.78 7.47,9.56 11.2,14.34c6.91,2.23 13.83,4.47 20.74,6.7c-6.39,5.38 -12.78,10.75 -19.17,16.13c1.03,2.61 2.06,5.75 2.84,9.35c0.94,4.35 1.27,8.26 1.33,11.49c11.85,-8.21 25.01,-16.53 39.5,-24.62c8.11,-4.53 16.04,-8.64 23.73,-12.39c2.83,-1.77 5.86,-3.82 8.98,-6.22c2.9,-2.22 5.48,-4.42 7.78,-6.54z" class="st6160"/>
     <path id="svg_81" fill="#640d14" d="m501.39226,147.84883c-2.63,7.48 -5.22,15.28 -7.72,23.39c-2.53,8.2 -4.82,16.19 -6.89,23.95c-2.02,0.47 -5,1.19 -8.57,2.2c-4.99,1.41 -7.53,2.14 -9.53,3.25c-2.71,1.51 -4.56,3.22 -8.26,6.65c-1.61,1.49 -1.63,1.64 -4.54,4.38c-3,2.83 -4.52,4.27 -5.76,5.16c-1.21,0.87 -3.69,2.63 -7.25,3.86c-2.51,0.87 -3.04,0.61 -6.68,1.57c0,0 -2.75,0.73 -6.72,2.25c-4.7,1.8 -19.14,9.14 -38.14,20.1c0,0.57 0,1.14 0,1.72l108.56,-31.32c-3.92,2.76 -8.28,6.22 -12.74,10.51c-3.86,3.72 -7.08,7.38 -9.74,10.73c-5.88,0.07 -11.76,0.14 -17.64,0.21c-12.78,4.97 -25.57,9.94 -38.35,14.91c-11.69,0.21 -23.39,0.43 -35.08,0.64c-2.99,4.45 -5.97,8.9 -8.96,13.36c2.79,3.13 5.58,6.26 8.37,9.39c16.01,3.32 28.86,6.23 37.68,8.29c10.79,2.52 19.62,4.71 33.07,7.4c8.29,1.66 15.11,2.87 19.55,3.62c-11.55,3.67 -23.1,7.34 -34.65,11.01c-8.38,-3.65 -14.79,-6.46 -19.33,-8.52c-1.36,-0.62 -4.02,-1.83 -7.72,-3.14c-3.35,-1.18 -3.46,-1 -6.11,-1.93c-5.18,-1.81 -6.62,-3.15 -13.17,-5.98c-2.21,-0.95 -4.22,-1.74 -5.98,-2.39c-0.13,1.5 -0.27,3 -0.4,4.51c-2.25,3.03 -4.51,6.06 -6.76,9.09c4.69,4.4 9.39,8.8 14.08,13.19c-4.99,1.29 -9.98,2.57 -14.96,3.86c-4.15,-5.75 -8.3,-11.5 -12.44,-17.24c0.96,-3.06 1.92,-7.28 2.06,-12.36c0.11,-4.12 -0.35,-7.67 -0.91,-10.42c-3,-4.89 -5.99,-9.79 -8.99,-14.68c2.47,-6.35 4.94,-12.7 7.4,-19.05c26.75,-13.12 57.15,-30.71 88.5,-54.4c16.76,-12.68 31.63,-25.45 44.72,-37.77z" class="st6158"/>
     <path id="svg_82" fill="#ad2831" d="m495.12226,256.08883c-2.04,2.68 -4.08,5.36 -6.11,8.05c-5.69,0.11 -11.37,0.21 -17.06,0.32c-8.53,1.43 -17.06,2.86 -25.58,4.29c-4.27,3.61 -8.55,7.22 -12.82,10.83c-7.6,-1.47 -15.2,-2.95 -22.8,-4.42c3.77,-5.71 7.55,-11.43 11.32,-17.14c7.92,1.14 15.84,2.29 23.76,3.43c7.15,-1.95 14.3,-3.9 21.46,-5.85c9.27,0.16 18.55,0.33 27.83,0.49z" class="st6159"/>
     <path id="svg_83" fill="#ad2831" d="m464.38226,324.02883c-12.5,1.64 -25,3.27 -37.49,4.91c-13.25,-11.02 -26.5,-22.04 -39.75,-33.05l5.04,-6.44l6.01,3.54c1.05,0.01 2.1,0.02 3.15,0.03c21.02,10.33 42.03,20.67 63.04,31.01z" class="st6159"/>
     <path id="svg_84" fill="#eae6e5" d="m397.52226,312.32883c15.69,13.7 31.38,27.41 47.07,41.11c-9.68,0.59 -19.36,1.18 -29.04,1.77l-32.42,-38.46c4.79,-1.47 9.59,-2.95 14.39,-4.42z" class="st6160"/>
     <path id="svg_85" fill="#ad2831" d="m364.56226,291.81883c-4.1,3.21 -8.2,6.43 -12.29,9.64c17.94,26.16 35.87,52.31 53.81,78.47c7.13,0.41 14.27,0.82 21.4,1.23c-21.18,-28 -42.36,-56.01 -63.55,-84.01c0.21,-1.77 0.42,-3.55 0.63,-5.33z" class="st6159"/>
     <path id="svg_86" fill="#ad2831" d="m383.85226,360.99883l-10.06,9.82c-1.58,-2.74 -3.16,-5.47 -4.75,-8.21c-1.99,0.1 -4.59,-0.06 -7.43,-1c-1.93,-0.64 -3.65,-1.21 -5.28,-2.78c-1.69,-1.62 -2.54,-3.61 -3.7,-6.28c-0.48,-1.09 -0.81,-2.02 -1.02,-2.66c-5.24,-11.1 -10.47,-22.2 -15.71,-33.3c4.64,-4.34 9.28,-8.69 13.92,-13.03l34.03,57.44z" class="st6159"/>
     <path id="svg_87" fill="#eae6e5" d="m383.85226,360.99883c-3.35,3.27 -6.7,6.54 -10.06,9.82c5.36,11 10.73,21.99 16.09,32.99c4.02,1.05 8.05,2.09 12.07,3.14c0.99,-3.16 1.98,-6.33 2.98,-9.49c-7.03,-12.16 -14.06,-24.31 -21.08,-36.46z" class="st6160"/>
     <path id="svg_88" fill="#640d14" d="m366.06226,362.53883c0.11,5.84 0.21,11.69 0.32,17.53c-4.72,4.34 -9.44,8.69 -14.16,13.03c0.04,-2.22 0.09,-4.45 0.13,-6.67c-9.01,-16.03 -18.02,-32.05 -27.03,-48.08c-0.28,-1.46 -0.59,-3.54 -0.62,-6.07c-0.04,-3.24 -0.06,-4.99 0.89,-6.92c0.8,-1.64 2.21,-2.78 4.99,-4.99c2.14,-1.71 4.02,-2.96 5.31,-3.78c5.58,11.99 11.16,23.98 16.73,35.96c0.62,1.48 2.97,6.61 8.54,8.91c1.84,0.76 3.55,1.02 4.9,1.08z" class="st6158"/>
     <path id="svg_89" fill="#640d14" d="m311.52226,399.29883c-0.13,-2.1 -0.27,-4.2 -0.4,-6.3c-1.57,-1.73 -3.15,-3.47 -4.72,-5.2c-5.88,-9.03 -11.76,-18.06 -17.65,-27.09c1.01,-1.18 2.02,-2.36 3.03,-3.54c0.68,0.82 1.36,1.64 2.04,2.47c5.29,-6.19 10.58,-12.37 15.88,-18.56c0.17,-11.63 0.69,-20.49 1.18,-24.7c0.14,-1.22 0.43,-3.37 1.82,-5.58c1.14,-1.81 2.49,-2.83 3.65,-3.69c6.67,-4.94 10.01,-7.41 10.13,-7.49c2.08,-1.47 4.97,-3.65 8.26,-6.6c0.79,-0.03 1.57,-0.05 2.36,-0.08c0.4,-0.37 0.99,-0.93 1.73,-1.61c3.96,-3.64 5.82,-5.04 7.84,-6.88c2.81,-2.56 4.8,-4.37 6.4,-6.96c1.24,-2.01 3.08,-5.85 3.02,-11.91c1.17,1.55 4.28,6.07 3.86,11.69c-0.07,0.94 -0.22,2.76 -1.23,4.77c-1.04,2.08 -2.42,3.21 -4.45,4.88c-2.48,2.05 -4.71,3.89 -7.72,6.38c-0.37,0 -0.74,0 -1.11,0c-4.26,3.81 -7.89,7.06 -11.39,10.19c-1.99,1.78 -6.22,5.77 -7.35,6.81c-2.01,1.86 -2.71,2.51 -3.54,3.54c-2.42,3.01 -3.44,6.17 -3.92,8.31c-1.22,22.44 -2.43,44.88 -3.65,67.32c-0.03,1.38 -0.27,3.73 -1.56,6.28c-0.79,1.59 -1.74,2.75 -2.51,3.55z" class="st6158"/>
     <path id="svg_90" fill="#640d14" d="m371.01226,138.61883c-9.75,12.52 -19.5,25.05 -29.25,37.57c-0.01,2.97 -0.01,5.95 -0.02,8.92c2.26,4.62 4.1,8.28 5.25,10.55c4.92,9.73 7.04,13.52 8.77,19.79c1.76,6.39 1.33,8.91 1.06,10.07c-0.4,1.7 -1.13,3.38 -5.59,9.48c-1.7,2.32 -3.91,5.25 -6.61,8.58c-3.76,-4.41 -7.52,-8.81 -11.28,-13.22c2.61,-0.8 5.22,-1.59 7.83,-2.39c-2.75,-2.12 -5.51,-4.24 -8.26,-6.36c2.76,-2.95 5.52,-5.9 8.29,-8.85c-0.04,-2.41 -0.29,-5.22 -0.97,-8.29c-0.28,-1.28 -0.61,-2.48 -0.97,-3.59c-2.26,1.9 -4.52,3.81 -6.79,5.71c0.84,-1.8 1.48,-3.35 1.93,-4.51c1.1,-2.79 1.65,-4.22 1.9,-6.06c0.26,-1.9 0.14,-3.51 -0.03,-4.61c-1.14,1.14 -2.29,2.27 -3.43,3.41c0.34,-5.6 0.68,-11.19 1.02,-16.79c-5.71,4.43 -11.42,8.85 -17.14,13.28c11.64,-11.13 23.28,-22.26 34.92,-33.39c6.47,-6.43 12.92,-12.86 19.37,-19.3z" class="st6158"/>
     <path id="svg_91" fill="#eae6e5" d="m342.74226,241.37883c0.63,0.74 1.25,1.47 1.88,2.21c-3.21,3.82 -6.41,7.64 -9.62,11.46l0.97,23.25c-13.11,-6.7 -26.23,-13.41 -39.34,-20.11c-6.57,7.46 -13.14,14.91 -19.71,22.37c1.39,-5.95 2.79,-11.91 4.18,-17.86c4.51,-3.35 9.01,-6.7 13.52,-10.06c6.54,-0.33 11.41,1.01 14.32,2.09c3.86,1.44 6.83,3.36 9.98,5.39c3.25,2.1 5.82,4.11 7.64,5.63c0.77,-2.79 1.12,-5.18 1.29,-6.92c0.29,-2.94 0.52,-5.3 -0.24,-8.21c-0.63,-2.43 -1.7,-4.25 -2.49,-5.39c5.87,-1.29 11.75,-2.57 17.62,-3.85z" class="st6160"/>
     <path id="svg_92" fill="#eae6e5" d="m307.57226,308.05883c-0.71,2.49 -1.42,4.99 -2.13,7.48c-2.55,-1.49 -5.1,-2.98 -7.64,-4.47c1.06,-3.74 2.12,-7.48 3.18,-11.22c2.2,2.74 4.39,5.48 6.59,8.21z" class="st6160"/>
     <path id="svg_93" fill="#eae6e5" d="m305.17226,316.72883c-2.63,-1.47 -5.26,-2.94 -7.89,-4.41c-1.25,6.52 -2.49,13.03 -3.74,19.55c3.58,2.12 7.16,4.24 10.74,6.36c0.29,-7.16 0.59,-14.33 0.89,-21.5z" class="st6160"/>
     <path id="svg_94" fill="#eae6e5" d="m302.55226,339.91883c-3.74,4.25 -7.48,8.5 -11.22,12.75c-0.38,-0.35 -0.75,-0.7 -1.13,-1.05c0.04,-5.42 0.08,-10.83 0.12,-16.25c0.76,-0.66 1.53,-1.31 2.29,-1.97c3.31,2.18 6.62,4.35 9.94,6.52z" class="st6160"/>
     <path id="svg_95" fill="#eae6e5" d="m288.47226,337.14883c-4.26,3.69 -8.53,7.38 -12.79,11.06c-0.01,6.45 -0.01,12.89 -0.02,19.34c4.32,-5.13 8.65,-10.27 12.97,-15.4c-0.06,-5 -0.11,-10 -0.16,-15z" class="st6160"/>
     <path id="svg_96" fill="#38040e" d="m280.18226,215.99883c2.28,1.55 2.87,2.11 4.26,2.63c0.44,0.17 2,0.73 3.82,0.68c3.03,-0.08 5.24,-1.78 6.2,-2.61c4.39,-3.3 7.99,-5.8 10.5,-7.48c0.86,-0.58 4.66,-3.12 9.41,-6.52c1.71,-1.22 2.47,-1.79 3.38,-2.53c2.99,-2.46 5.08,-4.86 6.4,-6.52c-1.21,2.18 -2.43,4.43 -3.63,6.76c-0.87,1.69 -1.71,3.35 -2.51,5c0.1,1.16 0.16,2.77 -0.07,4.66c-0.16,1.34 -0.36,3.19 -1.29,5.3c-0.53,1.22 -1.99,4.42 -5.37,6.51c-1.47,0.91 -2.86,1.34 -4.73,1.74c-2.94,0.63 -7.54,1.29 -13.64,0.89c-0.62,0.03 -1.25,0.05 -1.87,0.08c-0.05,2.94 -0.09,5.87 -0.14,8.81c-0.81,-1.49 -1.71,-3.04 -2.7,-4.64c-0.81,-1.3 -1.82,-2.94 -3.26,-4.93c-1.58,-2.19 -2.87,-3.7 -5.07,-6.28c-1.43,-1.67 -2.64,-3.03 -3.46,-3.94c1.64,0.97 2.92,1.81 3.77,2.39zm18.52,4.85c1.8,0.93 3.48,0.8 4.85,0.68c1.49,-0.14 5.34,-0.49 8.25,-3.54c3.12,-3.27 3.21,-7.64 3.26,-10.1c0.02,-0.88 -0.03,-1.61 -0.08,-2.13c-0.91,0.22 -2.1,0.6 -3.38,1.29c-1.47,0.79 -2.54,1.7 -3.26,2.41c0.04,0.38 0.32,3.1 -1.61,4.99c-1.37,1.33 -3.08,1.52 -3.79,1.59c-1.55,0.16 -2.8,-0.21 -3.45,-0.46c-1.23,0.83 -2.47,1.66 -3.7,2.49c0.42,0.71 1.32,1.96 2.91,2.78z" class="st6161"/>
     <path id="svg_97" fill="#38040e" d="m279.11226,220.42883c0.29,0.12 0.71,0.31 1.18,0.62c1.31,0.85 1.97,1.94 2.6,2.96c0.35,0.58 0.91,1.59 1.35,2.95c0.28,0.88 0.43,1.66 0.51,2.25c-0.15,-0.08 -0.35,-0.18 -0.58,-0.32c-0.3,-0.18 -0.93,-0.59 -1.63,-1.24c-0.28,-0.27 -0.26,-0.27 -1.6,-1.89c-0.74,-0.89 -0.85,-1.01 -1.01,-1.32c-0.33,-0.61 -0.45,-1.13 -0.58,-1.74c-0.12,-0.54 -0.25,-1.32 -0.24,-2.27z" class="st6161"/>
    </g>
    <path id="svg_99" fill="#38040e" d="m260.50226,360.75883c4.65,6.53 9.31,13.07 13.96,19.6c4.76,-6.55 9.52,-13.11 14.29,-19.66c5.88,9.03 11.76,18.06 17.65,27.09c-0.5,6.39 -1.01,12.79 -1.51,19.18c-10.12,8.9 -20.24,17.81 -30.36,26.71c-10.12,-8.87 -20.24,-17.74 -30.36,-26.6c-0.44,-6.41 -0.88,-12.82 -1.31,-19.23c5.87,-9.03 11.75,-18.06 17.64,-27.09z" class="st6161"/>
    <g id="svg_104">
     <polyline id="svg_100" fill="#eae6e5" points="278.041015625,285.3486328125 286.56103515625,275.36865234375 278.041015625,323.96875 278.041015625,285.82861328125 " class="st6160"/>
     <path id="svg_101" fill="#38040e" d="m274.46226,218.96883c-0.35,0.58 -0.73,1.3 -1.06,2.15c-0.35,0.89 -0.56,1.7 -0.7,2.39c1.25,0 2.49,0 3.74,0c-0.2,-0.72 -0.48,-1.54 -0.87,-2.41c-0.36,-0.82 -0.74,-1.52 -1.11,-2.13z" class="st6161"/>
     <path id="svg_102" fill="#38040e" d="m285.40226,251.79883c0.25,-0.82 0.52,-1.65 0.8,-2.49c0.96,-2.84 2.01,-5.49 3.1,-7.97c-1.06,-2.4 -2.26,-4.2 -3.19,-5.42c-0.86,-1.13 -3.95,-4.99 -9.33,-7.75c-0.46,-0.24 -0.84,-0.42 -1.09,-0.53c-0.23,-0.11 -0.63,-0.28 -1.16,-0.3c-0.57,-0.03 -1.02,0.12 -1.26,0.21c-0.3,0.12 -0.73,0.3 -1.23,0.54c-0.79,0.38 -3.66,1.82 -7.45,6.13c-1.46,1.65 -3.29,4.01 -5.05,7.12c0.82,1.41 1.66,3.03 2.45,4.87c0.81,1.88 1.42,3.64 1.89,5.23c-10.67,-5.73 -21.35,-11.45 -32.02,-17.18c7.59,6.14 15.18,12.28 22.77,18.42c4.51,3.35 9.01,6.7 13.52,10.06c1.39,5.95 2.79,11.91 4.18,17.86c0.78,2.44 1.56,4.88 2.33,7.32c0.75,-2.46 1.51,-4.92 2.26,-7.38c1.39,-5.95 2.79,-11.91 4.18,-17.86c4.51,-3.35 9.01,-6.7 13.52,-10.06c7.14,-5.96 14.29,-11.92 21.43,-17.88c-10.22,5.69 -20.43,11.37 -30.65,17.06zm-14.82,4.89c-0.26,-7.74 -0.52,-15.48 -0.77,-23.23c0.16,-0.46 0.54,-1.3 1.37,-2.04c1.31,-1.17 2.84,-1.24 3.29,-1.25c0.02,11.88 0.04,23.76 0.05,35.64c-1.32,-3.03 -2.63,-6.07 -3.94,-9.12z" class="st6161"/>
     <path id="svg_103" fill="#eae6e5" d="m268.02226,219.15883c0.31,0.65 0.63,1.29 0.94,1.94c0.18,-0.12 0.38,-0.23 0.6,-0.35c0.2,-0.11 0.4,-0.19 0.58,-0.27c0,0.38 -0.02,0.8 -0.07,1.24c-0.08,0.68 -0.21,1.27 -0.35,1.78c1,0 1.99,0 2.99,0c0.14,-0.73 0.38,-1.6 0.76,-2.55c0.31,-0.77 0.66,-1.43 1,-1.98c0.32,0.53 0.65,1.12 0.96,1.79c0.46,0.99 0.79,1.92 1.02,2.74c1.03,-0.01 2.07,-0.01 3.1,-0.02c-0.15,-0.52 -0.29,-1.14 -0.37,-1.84c-0.05,-0.43 -0.07,-0.84 -0.07,-1.21c0.21,0.08 0.43,0.19 0.67,0.32c0.26,0.14 0.48,0.28 0.68,0.42c0.24,-0.71 0.47,-1.42 0.71,-2.12c-0.03,-0.03 -2.6,-2.99 -2.63,-3.02c-0.02,-0.02 -2.08,-2.39 -2.1,-2.41c0.8,0.5 1.6,1 2.4,1.5c1.31,0.89 2.62,1.78 3.93,2.67c2.5,-2.96 5,-5.91 7.49,-8.87c-2.52,1.41 -8.22,4.17 -15.95,4.12c-7.86,-0.04 -13.6,-2.95 -16.09,-4.4c2.72,3.11 5.43,6.22 8.15,9.32c2.15,-1.43 4.29,-2.86 6.44,-4.29c-1.6,1.83 -3.19,3.66 -4.79,5.49z" class="st6160"/>
    </g>
    <g id="svg_110">
     <path id="svg_105" fill="#ad2831" d="m208.42226,154.50883c12.28,6.88 25.32,14.89 38.8,24.23c9.88,6.85 18.99,13.71 27.35,20.44c8.57,-7.06 18.06,-14.32 28.49,-21.56c13.42,-9.31 26.37,-17.18 38.46,-23.82c-7.18,2.33 -14.36,4.65 -21.54,6.98c-9.88,3.2 -19.75,6.4 -29.63,9.6c-0.16,-7.24 -0.32,-14.48 -0.48,-21.72c-2.86,-1.68 -6.59,-4.37 -10.05,-8.51c-3.22,-3.85 -4.9,-7.4 -5.56,-8.87c-2.18,-4.93 -2.85,-9.39 -3.06,-12.39c-1.65,2.14 -3.36,4.86 -4.67,8.21c-4.64,11.83 -1.01,22.96 0.48,26.87c-1.29,0.05 -2.57,0.11 -3.86,0.16c-0.7,1.66 -1.4,3.32 -2.11,4.98c-4.29,-2.14 -8.57,-4.29 -12.86,-6.43c-2.57,4.45 -5.15,8.9 -7.72,13.36c-4.02,-1.98 -8.48,-3.95 -13.36,-5.79c-6.7,-2.54 -12.99,-4.39 -18.68,-5.74z" class="st6159"/>
     <path id="svg_106" fill="#ad2831" d="m219.33226,137.43883c-0.63,1.82 -1.24,3.92 -1.72,6.28c-0.55,2.7 -0.81,5.16 -0.91,7.29c5.95,1.93 11.91,3.86 17.86,5.79c-0.01,-4.23 -0.02,-8.46 -0.03,-12.69c-5.06,-2.21 -10.13,-4.44 -15.2,-6.67z" class="st6159"/>
     <path id="svg_107" fill="#640d14" d="m217.93226,119.30883c-1.91,3.43 -3.81,6.86 -5.72,10.29c-0.36,2.77 -0.58,7.14 0.68,12.24c0.98,3.97 2.53,7.06 3.81,9.17c0.09,-1.75 0.28,-3.7 0.63,-5.79c0.51,-2.98 1.24,-5.59 2,-7.78c5.07,2.23 10.14,4.45 15.21,6.68c-3.17,-2.36 -7.91,-6.54 -11.77,-13.06c-2.62,-4.43 -4.04,-8.59 -4.84,-11.75z" class="st6158"/>
     <path id="svg_108" fill="#640d14" d="m246.26226,130.22883c-1.84,2.43 -4.19,6.17 -5.6,11.19c-2.86,10.16 0.02,18.81 1.29,22.05c2.08,-3.6 4.16,-7.2 6.25,-10.8c4.29,2.14 8.57,4.29 12.86,6.43c0.7,-1.66 1.41,-3.32 2.11,-4.98c-2.92,-1.82 -7.89,-5.45 -11.89,-11.73c-3.01,-4.69 -4.37,-9.14 -5.02,-12.16z" class="st6158"/>
     <path id="svg_109" fill="#640d14" d="m289.86226,148.64883c0.16,7.24 0.32,14.48 0.48,21.72c6.96,-2.25 13.91,-4.51 20.87,-6.76c-7.11,-4.98 -14.23,-9.97 -21.35,-14.96z" class="st6158"/>
    </g>
   </g>
  </g>
 </g>
 <defs>
  <filter id="Harpia_00000154394738026113639720000007929134929038065024__blur">
   <feGaussianBlur stdDeviation="0" in="SourceGraphic"/>
  </filter>
 </defs>
</svg>